<mxfile host="app.diagrams.net" agent="Mozilla/5.0 (Macintosh; Intel Mac OS X 10_15_7) AppleWebKit/537.36 (KHTML, like Gecko) Chrome/132.0.0.0 Safari/537.36" version="26.0.11">
  <diagram name="Page-1" id="Jg27AZ_zToV98ycy1QPl">
    <mxGraphModel dx="954" dy="530" grid="1" gridSize="10" guides="1" tooltips="1" connect="1" arrows="1" fold="1" page="1" pageScale="1" pageWidth="850" pageHeight="1100" math="0" shadow="0">
      <root>
        <mxCell id="0" />
        <mxCell id="1" parent="0" />
        <mxCell id="bBo8NFiw0HTzViM9txy--3" value="" style="edgeStyle=orthogonalEdgeStyle;rounded=0;orthogonalLoop=1;jettySize=auto;html=1;" edge="1" parent="1" source="bBo8NFiw0HTzViM9txy--1" target="bBo8NFiw0HTzViM9txy--2">
          <mxGeometry relative="1" as="geometry" />
        </mxCell>
        <mxCell id="bBo8NFiw0HTzViM9txy--1" value="Inicio" style="ellipse;whiteSpace=wrap;html=1;aspect=fixed;" vertex="1" parent="1">
          <mxGeometry x="380" y="240" width="80" height="80" as="geometry" />
        </mxCell>
        <mxCell id="bBo8NFiw0HTzViM9txy--5" value="" style="edgeStyle=orthogonalEdgeStyle;rounded=0;orthogonalLoop=1;jettySize=auto;html=1;" edge="1" parent="1" source="bBo8NFiw0HTzViM9txy--2" target="bBo8NFiw0HTzViM9txy--4">
          <mxGeometry relative="1" as="geometry" />
        </mxCell>
        <mxCell id="bBo8NFiw0HTzViM9txy--2" value="&lt;meta charset=&quot;utf-8&quot;&gt;&lt;span style=&quot;color: rgb(26, 26, 26);&quot;&gt;Mostrar mens&lt;span class=&quot;ql-cursor&quot;&gt;﻿&lt;/span&gt;aje: &quot;Ingrese una Palabra&quot;&lt;/span&gt;" style="shape=parallelogram;perimeter=parallelogramPerimeter;whiteSpace=wrap;html=1;fixedSize=1;rounded=1;" vertex="1" parent="1">
          <mxGeometry x="337.5" y="350" width="165" height="70" as="geometry" />
        </mxCell>
        <mxCell id="bBo8NFiw0HTzViM9txy--7" value="" style="edgeStyle=orthogonalEdgeStyle;rounded=0;orthogonalLoop=1;jettySize=auto;html=1;" edge="1" parent="1" source="bBo8NFiw0HTzViM9txy--4" target="bBo8NFiw0HTzViM9txy--6">
          <mxGeometry relative="1" as="geometry" />
        </mxCell>
        <mxCell id="bBo8NFiw0HTzViM9txy--4" value="&lt;meta charset=&quot;utf-8&quot;&gt;Definir variable &quot;cant_letras&quot; y realizar formula para contar letras de palabra_ingresada" style="rounded=1;whiteSpace=wrap;html=1;" vertex="1" parent="1">
          <mxGeometry x="345" y="460" width="150" height="110" as="geometry" />
        </mxCell>
        <mxCell id="bBo8NFiw0HTzViM9txy--9" value="" style="edgeStyle=orthogonalEdgeStyle;rounded=0;orthogonalLoop=1;jettySize=auto;html=1;" edge="1" parent="1" source="bBo8NFiw0HTzViM9txy--6" target="bBo8NFiw0HTzViM9txy--8">
          <mxGeometry relative="1" as="geometry" />
        </mxCell>
        <mxCell id="bBo8NFiw0HTzViM9txy--6" value="&lt;meta charset=&quot;utf-8&quot;&gt;&lt;span style=&quot;color: rgb(26, 26, 26);&quot;&gt;Mostrar mensaje: &quot;La palabra {palabra_ingresada} tiene {c&lt;span class=&quot;ql-cursor&quot;&gt;﻿&lt;/span&gt;ant_letras} letras&lt;/span&gt;" style="shape=parallelogram;perimeter=parallelogramPerimeter;whiteSpace=wrap;html=1;fixedSize=1;rounded=1;" vertex="1" parent="1">
          <mxGeometry x="325" y="630" width="190" height="100" as="geometry" />
        </mxCell>
        <mxCell id="bBo8NFiw0HTzViM9txy--8" value="Fin" style="ellipse;whiteSpace=wrap;html=1;rounded=1;" vertex="1" parent="1">
          <mxGeometry x="380" y="760" width="80" height="80" as="geometry" />
        </mxCell>
      </root>
    </mxGraphModel>
  </diagram>
</mxfile>
